<?xml version="1.0" standalone="no"?><!DOCTYPE svg PUBLIC "-//W3C//DTD SVG 1.1//EN" "http://www.w3.org/Graphics/SVG/1.1/DTD/svg11.dtd"><svg t="1762953098814" class="icon" viewBox="0 0 1024 1024" version="1.1" xmlns="http://www.w3.org/2000/svg" p-id="4984" xmlns:xlink="http://www.w3.org/1999/xlink" width="256" height="256"><path d="M819.2 0h-614.4C109.226667 0 34.133333 75.093333 34.133333 170.666667v682.666666C34.133333 948.906667 109.226667 1024 204.8 1024h614.4c95.573333 0 170.666667-75.093333 170.666667-170.666667v-682.666666C989.866667 75.093333 914.773333 0 819.2 0zM921.6 853.333333c0 54.613333-47.786667 102.4-102.4 102.4h-614.4c-54.613333 0-102.4-47.786667-102.4-102.4v-682.666666C102.4 116.053333 150.186667 68.266667 204.8 68.266667h614.4c54.613333 0 102.4 47.786667 102.4 102.4v682.666666z" fill="#1b38e1" p-id="4985" data-spm-anchor-id="a313x.search_index.0.i1.1f0d3a81KqJPVS" class="selected"></path><path d="M716.8 204.8H307.2c-40.96 0-68.266667 27.306667-68.266667 68.266667v136.533333h546.133334V273.066667c0-40.96-27.306667-68.266667-68.266667-68.266667zM238.933333 750.933333c0 40.96 27.306667 68.266667 68.266667 68.266667h204.8V477.866667H238.933333v273.066666zM580.266667 819.2h136.533333c40.96 0 68.266667-27.306667 68.266667-68.266667V477.866667H580.266667v341.333333z" fill="#1b38e1" p-id="4986"></path></svg>