<?xml version="1.0" standalone="no"?><!DOCTYPE svg PUBLIC "-//W3C//DTD SVG 1.1//EN" "http://www.w3.org/Graphics/SVG/1.1/DTD/svg11.dtd"><svg t="1762953212531" class="icon" viewBox="0 0 1024 1024" version="1.1" xmlns="http://www.w3.org/2000/svg" p-id="8666" xmlns:xlink="http://www.w3.org/1999/xlink" width="256" height="256"><path d="M729.6 215.68V384a38.4 38.4 0 1 0 76.8 0V211.776q0-43.52-38.912-62.976l-192-96q-35.136-17.536-68.48 3.072-33.408 20.672-33.408 59.904v792.448q0 39.232 33.408 59.904 33.344 20.608 68.48 3.072l192-96q38.912-19.456 38.912-62.976V640a38.4 38.4 0 1 0-76.8 0v168.32l-179.2 89.6V126.08l179.2 89.6zM320 256a64 64 0 1 0 0-128 64 64 0 0 0 0 128zM128 384a64 64 0 1 0 0-128 64 64 0 0 0 0 128z m896 0a64 64 0 1 1-128 0 64 64 0 0 1 128 0zM288 576a96 96 0 1 0 0-192 96 96 0 0 0 0 192zM704 512a64 64 0 1 1-128 0 64 64 0 0 1 128 0z m-544 320a96 96 0 1 0 0-192 96 96 0 0 0 0 192zM1024 704a64 64 0 1 1-128 0 64 64 0 0 1 128 0zM384 896a64 64 0 1 1-128 0 64 64 0 0 1 128 0z" fill="#1b38e1" p-id="8667"></path></svg>